<svg xmlns="http://www.w3.org/2000/svg" version="1.1" xmlns:xlink="http://www.w3.org/1999/xlink" xmlns:svgjs="http://svgjs.dev/svgjs" width="800" height="741" viewBox="0 0 800 741"><g transform="matrix(1,0,0,1,2.025263157894699,1.8414129138068915)"><svg viewBox="0 0 95 88" data-background-color="#ffffff" preserveAspectRatio="xMidYMid meet" height="741" width="800" xmlns="http://www.w3.org/2000/svg" xmlns:xlink="http://www.w3.org/1999/xlink"><g id="tight-bounds" transform="matrix(1,0,0,1,-0.24049999999999727,-0.21868331500000693)"><svg viewBox="0 0 95.481 87.84252" height="87.84252" width="95.481"><g><svg viewBox="0 0 95.481 87.84252" height="87.84252" width="95.481"><g><svg viewBox="0 0 95.481 87.84252" height="87.84252" width="95.481"><g><svg viewBox="0 0 95.481 87.84252" height="87.84252" width="95.481"><g><svg viewBox="0 0 95.481 87.84252" height="87.84252" width="95.481"><g><svg viewBox="0 0 95.481 87.84252" height="87.84252" width="95.481"><g><svg version="1.1" xmlns="http://www.w3.org/2000/svg" xmlns:xlink="http://www.w3.org/1999/xlink" x="0" y="0" viewBox="0 0 100 92" enable-background="new 0 0 100 92.623" xml:space="preserve" width="95.481" height="87.84252" class="icon-icon-0" data-fill-palette-color="accent" id="icon-0"><polygon fill="#0c825f" points="13.33,27.016 9.061,17.623 52.514,0 36.385,7.804 36.385,17.244 30.835,13.709 13.757,20.754 " data-fill-palette-color="accent"></polygon><polygon fill="#0c825f" points="38.662,10.935 38.662,18.904 51.755,27.016 51.755,18.05 " data-fill-palette-color="accent"></polygon><polygon fill="#0c825f" points="39.979,8.906 53.036,16.342 70.256,8.23 55.598,2.11 " data-fill-palette-color="accent"></polygon><polygon fill="#0c825f" points="54.459,17.907 54.459,26.162 71.252,17.054 71.252,9.796 " data-fill-palette-color="accent"></polygon><polygon fill="#0c825f" points="74.383,7.661 74.383,14.35 91.604,24.738 91.604,28.724 100,20.47 " data-fill-palette-color="accent"></polygon><polygon fill="#0c825f" points="30.835,16.342 50.189,28.724 33.823,35.555 15.465,22.319 " data-fill-palette-color="accent"></polygon><polygon fill="#0c825f" points="15.465,25.308 31.973,37.12 31.973,43.098 15.465,28.724 " data-fill-palette-color="accent"></polygon><polygon fill="#0c825f" points="34.108,37.689 51.755,30.146 51.755,36.693 34.108,44.236 " data-fill-palette-color="accent"></polygon><polygon fill="#0c825f" points="55.117,30.146 55.117,37.191 68.548,43.098 68.548,35.555 " data-fill-palette-color="accent"></polygon><polygon fill="#0c825f" points="55.117,27.918 69.378,33.942 87.357,25.451 74.549,17.979 " data-fill-palette-color="accent"></polygon><polygon fill="#0c825f" points="70.256,35.555 88.33,26.162 88.33,35.555 70.256,43.098 " data-fill-palette-color="accent"></polygon><polygon fill="#0c825f" points="53.463,38.259 65.702,44.236 44.07,53.06 35.247,45.659 " data-fill-palette-color="accent"></polygon><polygon fill="#0c825f" points="11.907,29.436 39.979,53.06 24.004,59.203 0,39.351 " data-fill-palette-color="accent"></polygon><polygon fill="#0c825f" points="47.628,53.771 91.271,37.191 94.592,52.585 56.594,68.999 " data-fill-palette-color="accent"></polygon><polygon fill="#0c825f" points="47.628,62.024 54.221,72.623 89.469,58.04 89.469,74.406 47.628,92.623 " data-fill-palette-color="accent"></polygon><polygon fill="#0c825f" points="43.928,55.337 43.928,92.054 15.465,71.987 15.465,56.001 23.326,62.297 " data-fill-palette-color="accent"></polygon></svg></g></svg></g></svg></g></svg></g></svg></g></svg></g><defs></defs></svg><rect width="95.481" height="87.84252" fill="none" stroke="none" visibility="hidden"></rect></g></svg></g></svg>